# xmcd
#
# Track frame offsets:
# 150
# 10642
# 18754
# 32564
# 43004
# 50265
# 59178
# 71875
# 80808
# 96635
# 106924
# 113470
# 122008
# 130013
# 135100
# 146310
# 160891
# 169193
# 173927
# 182079
# 185817
# 191785
# 198481
# 206566
# 210754
# 216374
# 226653
# 244573
# 249079
# 252864
# 262072
# 271210
# 282658
# 304592
#
# Disc length: 4256 seconds
#
#
# Revision: 0
# Processed by: cddbd v1.5.1PL0 Copyright (c) Steve Scherf et al.
# Submitted via: FreeRIP 2.931 
#
DISCID=e6109e22
DTITLE=Luther Davis - Home Recordings
DYEAR=1900
DGENRE=Folk
TTITLE0=Sail Away Ladies
TTITLE1=Shady Grove
TTITLE2=Luther's first banjo
TTITLE3=Waves On the Ocean
TTITLE4=Rockingham Cindy
TTITLE5=Walking in my sleep
TTITLE6=Walking that pretty girl home
TTITLE7=West Virginia Farewell
TTITLE8=Mississippi Sawyer
TTITLE9=Southern Home in Dixie
TTITLE10=Belles of Lexington
TTITLE11=Grasshopper Sitting on a sweet potatoe vine
TTITLE12=Lonesome Dove
TTITLE13=Walking in the parlor
TTITLE14=Crackling Hen
TTITLE15=Molly put the kettle on
TTITLE16=Twinkle Little Star
TTITLE17=Hop high ladies
TTITLE18=Fanny Hillo
TTITLE19=Little black dog came trotting down the road
TTITLE20=Silly Bill
TTITLE21=Liza Jane
TTITLE22=Buffalo Gals
TTITLE23=Ducks on the mill pond
TTITLE24=Olddad
TTITLE25=Fortune
TTITLE26=Sally Ann
TTITLE27=Sweet Bird
TTITLE28=Right in the middle of a duck's eyeball
TTITLE29=Chapel Hill serenade
TTITLE30=Rocking in the weary land
TTITLE31=Stay all night and don't go home
TTITLE32=What you gonna do with the baby
TTITLE33=Lilly of the valley
EXTD=
EXTT0=
EXTT1=
EXTT2=
EXTT3=
EXTT4=
EXTT5=
EXTT6=
EXTT7=
EXTT8=
EXTT9=
EXTT10=
EXTT11=
EXTT12=
EXTT13=
EXTT14=
EXTT15=
EXTT16=
EXTT17=
EXTT18=
EXTT19=
EXTT20=
EXTT21=
EXTT22=
EXTT23=
EXTT24=
EXTT25=
EXTT26=
EXTT27=
EXTT28=
EXTT29=
EXTT30=
EXTT31=
EXTT32=
EXTT33=
PLAYORDER=
